<svg xmlns="http://www.w3.org/2000/svg" xmlns:xlink="http://www.w3.org/1999/xlink" width="10" height="10" viewBox="0 0 10 10" version="1.1">
  <title>
    times
  </title>
  <desc>
    Created with Sketch.
  </desc>
  <g id="Page-1" stroke="none" stroke-width="1" fill="none" fill-rule="evenodd">
    <g id="1" transform="translate(-161.000000, -561.000000)" fill="#FFFFFF">
      <g id="modulo-trader" transform="translate(-1.000000, 548.000000)">
        <g id="trader">
          <g id="times" transform="translate(162.000000, 13.000000)">
            <path d="M9.87 7.87C9.87 8.08 9.8 8.26 9.65 8.41L8.56 9.5C8.42 9.65 8.23 9.72 8.02 9.72 7.81 9.72 7.63 9.65 7.48 9.5L5.14 7.15 2.79 9.5C2.64 9.65 2.46 9.72 2.25 9.72 2.04 9.72 1.86 9.65 1.71 9.5L0.62 8.41C0.48 8.26 0.4 8.08 0.4 7.87 0.4 7.66 0.48 7.48 0.62 7.33L2.97 4.99 0.62 2.64C0.48 2.49 0.4 2.31 0.4 2.1 0.4 1.89 0.48 1.71 0.62 1.56L1.71 0.47C1.86 0.32 2.04 0.25 2.25 0.25 2.46 0.25 2.64 0.32 2.79 0.47L5.14 2.82 7.48 0.47C7.63 0.32 7.81 0.25 8.02 0.25 8.23 0.25 8.42 0.32 8.56 0.47L9.65 1.56C9.8 1.71 9.87 1.89 9.87 2.1 9.87 2.31 9.8 2.49 9.65 2.64L7.3 4.99 9.65 7.33C9.8 7.48 9.87 7.66 9.87 7.87L9.87 7.87Z" id="Shape"/>
          </g>
        </g>
      </g>
    </g>
  </g>
</svg>
