<svg xmlns="http://www.w3.org/2000/svg" xmlns:xlink="http://www.w3.org/1999/xlink" width="15" height="15" viewBox="0 0 15 15" version="1.1">
  <title>
    explorar-icon
  </title>
  <desc>
    Created with Sketch.
  </desc>
  <g id="Page-1" stroke="none" stroke-width="1" fill="none" fill-rule="evenodd">
    <g id="1" transform="translate(-15.000000, -93.000000)" fill="#ADAFB2">
      <g id="menuizq" transform="translate(-1.000000, 50.000000)">
        <g id="principal" transform="translate(1.000000, 0.000000)">
          <path d="M22.5 49.68C22.05 49.68 21.68 50.05 21.68 50.5 21.68 50.95 22.05 51.33 22.5 51.33 22.95 51.33 23.33 50.95 23.33 50.5 23.33 50.05 22.95 49.68 22.5 49.68L22.5 49.68ZM22.5 43C18.38 43 15 46.38 15 50.5 15 54.63 18.38 58 22.5 58 26.63 58 30 54.63 30 50.5 30 46.38 26.63 43 22.5 43L22.5 43ZM24.15 52.15L18 55 20.85 48.85 27 46 24.15 52.15 24.15 52.15Z" id="explorar-icon"/>
        </g>
      </g>
    </g>
  </g>
</svg>
